<?xml version="1.0" encoding="utf-8"?>
<!-- Generator: Adobe Illustrator 23.0.0, SVG Export Plug-In . SVG Version: 6.00 Build 0)  -->
<svg version="1.1" id="Layer_1" xmlns="http://www.w3.org/2000/svg" xmlns:xlink="http://www.w3.org/1999/xlink" x="0px" y="0px"
	 viewBox="0 0 500 500" style="enable-background:new 0 0 500 500;" xml:space="preserve">
<style type="text/css">
	.st0{fill:#FEC10D;}
</style>
<g id="Layer_3">
</g>
<g>
	<path class="st0" d="M250.5,146c-57.5,0-104.2,46.7-104.2,104.2c0,57.5,46.7,104.2,104.2,104.2c57.5,0,104.2-46.7,104.2-104.2
		C354.7,192.7,308,146,250.5,146z M250.5,333.4c-45.9,0-83.2-37.3-83.2-83.2s37.3-83.2,83.2-83.2c45.9,0,83.2,37.3,83.2,83.2
		S296.4,333.4,250.5,333.4z"/>
	<path class="st0" d="M250.5,128.2c-5.8,0-10.5-4.7-10.5-10.5V60.1c0-5.8,4.7-10.5,10.5-10.5c5.8,0,10.5,4.7,10.5,10.5v57.5
		C261,123.5,256.3,128.2,250.5,128.2z"/>
	<path class="st0" d="M250.5,450.4c-5.8,0-10.5-4.7-10.5-10.5v-57.2c0-5.8,4.7-10.5,10.5-10.5c5.8,0,10.5,4.7,10.5,10.5v57.2
		C261,445.7,256.3,450.4,250.5,450.4z"/>
	<path class="st0" d="M439.5,260.7H383c-5.8,0-10.5-4.7-10.5-10.5c0-5.8,4.7-10.5,10.5-10.5h56.5c5.8,0,10.5,4.7,10.5,10.5
		C450,256,445.3,260.7,439.5,260.7z"/>
	<path class="st0" d="M118,260.7H60.5c-5.8,0-10.5-4.7-10.5-10.5c0-5.8,4.7-10.5,10.5-10.5H118c5.8,0,10.5,4.7,10.5,10.5
		C128.5,256,123.8,260.7,118,260.7z"/>
	<path class="st0" d="M344.2,167c-2.7,0-5.4-1-7.4-3.1c-4.1-4.1-4.1-10.8,0-14.9l30.9-30.9c4.1-4.1,10.8-4.1,14.9,0
		c4.1,4.1,4.1,10.8,0,14.9l-30.9,30.9C349.6,166,346.9,167,344.2,167z"/>
	<path class="st0" d="M125.6,385.6c-2.7,0-5.4-1-7.4-3.1c-4.1-4.1-4.1-10.8,0-14.9l31.2-31.2c4.1-4.1,10.8-4.1,14.9,0
		c4.1,4.1,4.1,10.8,0,14.9l-31.2,31.2C131,384.5,128.3,385.6,125.6,385.6z"/>
	<path class="st0" d="M375.5,385.6c-2.7,0-5.4-1-7.4-3.1l-31.7-31.7c-4.1-4.1-4.1-10.8,0-14.9c4.1-4.1,10.8-4.1,14.9,0l31.7,31.7
		c4.1,4.1,4.1,10.8,0,14.9C380.8,384.6,378.1,385.6,375.5,385.6z"/>
	<path class="st0" d="M156.8,167c-2.7,0-5.4-1-7.4-3.1l-31.2-31.2c-4.1-4.1-4.1-10.8,0-14.9c4.1-4.1,10.8-4.1,14.9,0l31.2,31.2
		c4.1,4.1,4.1,10.8,0,14.9C162.2,166,159.5,167,156.8,167z"/>
</g>
</svg>
