<?xml version="1.0" encoding="utf-8"?>
<!-- Generator: Adobe Illustrator 23.0.0, SVG Export Plug-In . SVG Version: 6.00 Build 0)  -->
<svg version="1.1" id="Layer_1" xmlns="http://www.w3.org/2000/svg" xmlns:xlink="http://www.w3.org/1999/xlink" x="0px" y="0px"
	 viewBox="0 0 500 500" style="enable-background:new 0 0 500 500;" xml:space="preserve">
<style type="text/css">
	.st0{fill:#FFFFFF;}
</style>
<g>
	<path class="st0" d="M170.03,80.82c-0.01,8.78,0.15,17.57-0.04,26.35c-0.34,15.4-11.64,27.15-25.76,27.05
		c-14.23-0.1-25.3-11.81-25.44-27.29c-0.16-17.56-0.18-35.13,0.01-52.7c0.16-15.51,11.28-26.96,25.67-26.9
		C158.8,27.38,169.7,38.88,170,54.47C170.17,63.25,170.03,72.03,170.03,80.82z"/>
	<path class="st0" d="M349.25,79.96c0-8.78-0.16-17.56,0.04-26.34c0.33-14.66,10.96-25.89,24.63-26.3
		C388,26.9,399.89,37.81,400.3,52.69c0.51,18.61,0.47,37.25,0.01,55.86c-0.36,14.41-11.99,25.61-25.47,25.65
		c-13.93,0.05-25.21-11.43-25.56-26.31C349.07,98.59,349.25,89.28,349.25,79.96z"/>
	<path class="st0" d="M99.79,66.71c0,14.17-0.22,27.44,0.05,40.71c0.54,26.66,20.97,47.08,46.03,46.31
		c23.81-0.73,42.44-20.9,43.03-46.96c0.3-13,0.05-26.02,0.05-39.54c47.34,0,93.85,0,141.3,0c0,13.54-0.17,26.81,0.04,40.07
		c0.33,20.87,13.18,38.75,31.69,44.52c25,7.79,51.97-8.99,56.13-35.47c1.31-8.36,0.96-17,1.15-25.52
		c0.17-7.68,0.04-15.37,0.04-23.46c10.59-1.19,19.03,2.25,26.57,7.97c12.24,9.29,18.65,21.9,18.67,37.22
		c0.12,107.25,0.16,214.5,0,321.76c-0.04,26.77-20.16,46.04-46.96,46.03c-111.52-0.03-223.04-0.03-334.56-0.01
		c-27.71,0.01-47.39-19.31-47.41-47.21c-0.09-106.45-0.09-212.9,0-319.35c0.02-27.44,19.41-46.74,46.77-47.05
		C87.89,66.66,93.42,66.71,99.79,66.71z M86.62,427.21c109.18,0,217.85,0,326.89,0c0-87.48,0-174.52,0-261.94
		c-109.14,0-217.8,0-326.89,0C86.62,252.57,86.62,339.43,86.62,427.21z"/>
</g>
</svg>
